Coordinates
version=1
nRows=10
nColumns=63
inDegrees=yes

Units are S.I. units (second, meters, Newtons, ...)
If the header above contains a line with 'inDegrees', this indicates whether rotational values are in degrees (yes) or radians (no).

endheader
time	pelvis_tilt	pelvis_list	pelvis_rotation	pelvis_tx	pelvis_ty	pelvis_tz	hip_flexion_r	hip_adduction_r	hip_rotation_r	knee_angle_r	knee_angle_r_beta	ankle_angle_r	subtalar_angle_r	mtp_angle_r	hip_flexion_l	hip_adduction_l	hip_rotation_l	knee_angle_l	knee_angle_l_beta	ankle_angle_l	subtalar_angle_l	mtp_angle_l	L5_S1_Flex_Ext	L5_S1_Lat_Bending	L5_S1_axial_rotation	L4_L5_Flex_Ext	L4_L5_Lat_Bending	L4_L5_axial_rotation	L3_L4_Flex_Ext	L3_L4_Lat_Bending	L3_L4_axial_rotation	L2_L3_Flex_Ext	L2_L3_Lat_Bending	L2_L3_axial_rotation	L1_L2_Flex_Ext	L1_L2_Lat_Bending	L1_L2_axial_rotation	L1_T12_Flex_Ext	L1_T12_Lat_Bending	L1_T12_axial_rotation	Abs_r3	Abs_r2	Abs_r1	Abs_t1	Abs_t2	neck_flexion	neck_bending	neck_rotation	arm_flex_r	arm_add_r	arm_rot_r	elbow_flex_r	pro_sup_r	wrist_flex_r	wrist_dev_r	arm_flex_l	arm_add_l	arm_rot_l	elbow_flex_l	pro_sup_l	wrist_flex_l	wrist_dev_l
2.818182	1.562822	-1.963579	94.332475	0.237991	0.881611	0.605540	-2.451387	2.068050	9.527315	3.632127	0.063393	19.452273	-9.359613	0.000000	-1.644658	-3.384720	-4.162353	5.177866	0.090371	21.123655	2.555346	0.000000	0.146535	-0.197329	-0.104141	0.272129	-0.262448	-0.110650	0.240742	-0.479786	-0.110650	0.167474	-0.479786	-0.091123	0.136072	-0.402393	-0.084614	0.083730	-0.305663	-0.078106	1.046682	-2.232225	-0.579199	0.000000	0.000000	5.573029	2.740066	4.925067	11.411548	-10.315905	25.030089	85.869026	65.666974	0.155706	19.253881	-4.316344	-7.698104	14.067905	83.970100	80.897184	-1.871539	11.132018
2.848485	1.655602	-1.831570	94.289890	0.237867	0.881809	0.604989	-2.471434	2.181827	9.501885	3.885939	0.067822	19.403291	-9.444079	0.000000	-1.691390	-3.520361	-4.855959	5.441097	0.094965	21.385730	3.396154	0.000000	0.144889	-0.167239	0.079363	0.269073	-0.222428	0.084323	0.238038	-0.406626	0.084323	0.165593	-0.406626	0.069443	0.134544	-0.341035	0.064483	0.082789	-0.259054	0.059522	1.034926	-1.891845	0.441394	0.000000	0.000000	4.371120	2.125057	6.030967	7.815005	-11.030364	25.844167	87.658389	62.295486	0.236137	19.450554	-4.207536	-8.892628	16.320059	83.851622	80.720761	-0.737325	9.885493
2.878788	1.762027	-1.711205	94.312365	0.237590	0.881933	0.604693	-2.453696	2.303017	9.327294	4.162079	0.072642	19.387913	-9.392546	0.000000	-1.656004	-3.651683	-5.236324	5.779820	0.100877	21.656810	3.901986	0.000000	0.142307	-0.137094	0.284827	0.264278	-0.182335	0.302629	0.233796	-0.333331	0.302629	0.162642	-0.333331	0.249224	0.132146	-0.279562	0.231422	0.081314	-0.212359	0.213620	1.016483	-1.550836	1.584123	0.000000	0.000000	3.252109	1.529204	6.820633	4.571601	-11.659378	26.554468	88.943395	58.631579	0.232451	19.465414	-3.991331	-9.964113	18.499915	83.654394	80.593082	0.235066	8.586945
2.909091	1.872158	-1.595731	94.419941	0.237163	0.881976	0.604660	-2.411605	2.422433	8.961065	4.458309	0.077812	19.417335	-9.176120	0.000000	-1.544456	-3.772197	-5.330425	6.199705	0.108205	21.934172	4.134736	0.000000	0.137685	-0.109898	0.502624	0.255695	-0.146164	0.534038	0.226203	-0.267206	0.534038	0.157360	-0.267206	0.439796	0.127854	-0.224104	0.408382	0.078673	-0.170232	0.376968	0.983470	-1.243187	2.795444	0.000000	0.000000	2.238667	1.013076	7.233345	1.771084	-12.156372	27.136665	89.718356	55.648511	0.226444	19.300012	-3.740224	-10.833087	20.459338	83.396549	80.511672	0.971954	7.170859
2.939394	1.983118	-1.484968	94.648866	0.236574	0.881939	0.604900	-2.354559	2.540359	8.382578	4.761375	0.083102	19.470996	-8.810445	0.000000	-1.356557	-3.877994	-5.097228	6.692913	0.116813	22.187665	4.062508	0.000000	0.129958	-0.087715	0.720191	0.241345	-0.116662	0.765202	0.213508	-0.213271	0.765202	0.148529	-0.213271	0.630167	0.120679	-0.178869	0.585155	0.074258	-0.135871	0.540143	0.928277	-0.992255	4.005484	0.000000	0.000000	1.358022	0.628613	7.229373	-0.443390	-12.485245	27.591245	89.984487	54.084069	0.166438	18.850528	-3.512287	-11.435463	22.064136	83.140595	80.399055	1.380232	5.677219
2.969697	2.066258	-1.391251	94.984987	0.235905	0.881820	0.605438	-2.263586	2.626053	7.621554	5.089210	0.088823	19.576332	-8.310877	0.000000	-1.085389	-3.940509	-4.566507	7.255006	0.126624	22.389037	3.667385	0.000000	0.117506	-0.077303	0.940415	0.218221	-0.102813	0.999191	0.193051	-0.187954	0.999191	0.134298	-0.187954	0.822863	0.109116	-0.157636	0.764087	0.067143	-0.119742	0.705311	0.839336	-0.874466	5.230305	0.000000	0.000000	0.697532	0.441611	6.653103	-1.957834	-12.588203	27.840823	89.798170	54.024715	0.112191	18.321449	-3.289569	-11.730931	23.192850	82.942710	80.283547	1.459984	4.267670
3.000000	2.125500	-1.293463	95.426406	0.235178	0.881662	0.606302	-2.159519	2.688961	6.720186	5.438153	0.094914	19.713424	-7.741479	0.000000	-0.749950	-3.968683	-3.800209	7.882506	0.137576	22.546347	2.988651	0.000000	0.097237	-0.078063	1.140692	0.180579	-0.103824	1.211986	0.159751	-0.189803	1.211986	0.111132	-0.189803	0.998106	0.090294	-0.159187	0.926813	0.055561	-0.120920	0.855519	0.694555	-0.883068	6.344189	0.000000	0.000000	0.232115	0.457199	5.690295	-2.663565	-12.461783	28.154846	89.185212	54.506281	-0.085828	17.648961	-3.087122	-11.727236	23.722231	82.861864	80.048624	1.112647	2.979061
3.030303	2.163165	-1.214155	95.979747	0.234355	0.881440	0.607386	-2.045575	2.729580	5.727268	5.772510	0.100749	19.847984	-7.174599	0.000000	-0.361791	-3.970379	-2.866616	8.516390	0.148639	22.700192	2.202727	0.000000	0.075798	-0.088422	1.311850	0.140764	-0.117602	1.393841	0.124528	-0.214990	1.393841	0.086629	-0.214990	1.147869	0.070386	-0.180311	1.065878	0.043311	-0.136966	0.983888	0.541415	-1.000250	7.296117	0.000000	0.000000	-0.064022	0.714626	4.605960	-2.732195	-12.192993	28.586923	88.472402	55.329485	-0.522928	17.085479	-2.924239	-11.436107	23.628620	82.877159	79.629862	0.397781	1.822908
3.060606	2.169871	-1.147479	96.651090	0.233428	0.881173	0.608688	-1.933165	2.736823	4.641023	6.087676	0.106250	19.978987	-6.613651	0.000000	0.062623	-3.935572	-1.772906	9.142632	0.159569	22.847508	1.329769	0.000000	0.052842	-0.109467	1.435485	0.098133	-0.145591	1.525203	0.086814	-0.266158	1.525203	0.060393	-0.266158	1.256049	0.049069	-0.223225	1.166331	0.030194	-0.169564	1.076614	0.377444	-1.238313	7.983735	0.000000	0.000000	-0.217723	1.147611	3.477637	-2.276103	-11.817019	29.209369	87.791569	56.306585	-1.114616	16.540656	-2.820734	-10.944921	22.934804	83.029654	78.904104	-0.698877	0.888093
3.090909	2.182671	-1.091972	97.419540	0.232400	0.880885	0.610210	-1.821975	2.749339	3.559174	6.374828	0.111262	20.061734	-6.183556	0.000000	0.518359	-3.910199	-0.688478	9.759152	0.170329	23.009873	0.565709	0.000000	0.028586	-0.135466	1.523560	0.053087	-0.180170	1.618782	0.046964	-0.329373	1.618782	0.032671	-0.329373	1.333115	0.026545	-0.276243	1.237892	0.016334	-0.209837	1.142670	0.204188	-1.532423	8.473584	0.000000	0.000000	-0.254907	1.718504	2.446162	-1.418281	-11.361550	29.898123	87.234366	57.074102	-1.680586	16.039169	-2.673949	-10.321776	21.830796	83.228294	77.982735	-2.143490	0.186139
